<mxfile host="app.diagrams.net" modified="2022-10-23T14:31:36.410Z" agent="5.0 (Macintosh; Intel Mac OS X 10_15_7) AppleWebKit/537.36 (KHTML, like Gecko) Chrome/106.0.0.0 Safari/537.36" etag="ztaj3V3BSVNSbssFREIa" version="20.4.1" type="github">
  <diagram name="Page-1" id="c4acf3e9-155e-7222-9cf6-157b1a14988f">
    <mxGraphModel dx="757" dy="491" grid="1" gridSize="10" guides="1" tooltips="1" connect="1" arrows="1" fold="1" page="1" pageScale="1" pageWidth="850" pageHeight="1100" background="none" math="0" shadow="0">
      <root>
        <mxCell id="0" />
        <mxCell id="1" parent="0" />
        <mxCell id="jaeACZpHtCw7frlPeN86-26" style="edgeStyle=orthogonalEdgeStyle;rounded=0;orthogonalLoop=1;jettySize=auto;html=1;exitX=0.5;exitY=1;exitDx=0;exitDy=0;entryX=0.5;entryY=0;entryDx=0;entryDy=0;fontSize=12;endArrow=open;endFill=0;targetPerimeterSpacing=0;" edge="1" parent="1" source="jaeACZpHtCw7frlPeN86-1" target="jaeACZpHtCw7frlPeN86-5">
          <mxGeometry relative="1" as="geometry" />
        </mxCell>
        <mxCell id="jaeACZpHtCw7frlPeN86-27" value="&lt;font style=&quot;font-size: 11px;&quot;&gt;manage&lt;/font&gt;" style="edgeLabel;html=1;align=center;verticalAlign=middle;resizable=0;points=[];fontSize=12;" vertex="1" connectable="0" parent="jaeACZpHtCw7frlPeN86-26">
          <mxGeometry x="-0.0381" y="-1" relative="1" as="geometry">
            <mxPoint x="21" as="offset" />
          </mxGeometry>
        </mxCell>
        <mxCell id="jaeACZpHtCw7frlPeN86-30" style="edgeStyle=orthogonalEdgeStyle;rounded=0;orthogonalLoop=1;jettySize=auto;html=1;exitX=1;exitY=0.5;exitDx=0;exitDy=0;entryX=-0.004;entryY=0.171;entryDx=0;entryDy=0;entryPerimeter=0;fontSize=11;endArrow=open;endFill=0;targetPerimeterSpacing=0;" edge="1" parent="1" source="jaeACZpHtCw7frlPeN86-1" target="jaeACZpHtCw7frlPeN86-22">
          <mxGeometry relative="1" as="geometry" />
        </mxCell>
        <mxCell id="jaeACZpHtCw7frlPeN86-31" value="create" style="edgeLabel;html=1;align=center;verticalAlign=middle;resizable=0;points=[];fontSize=11;" vertex="1" connectable="0" parent="jaeACZpHtCw7frlPeN86-30">
          <mxGeometry x="-0.0917" relative="1" as="geometry">
            <mxPoint y="10" as="offset" />
          </mxGeometry>
        </mxCell>
        <mxCell id="jaeACZpHtCw7frlPeN86-37" style="edgeStyle=orthogonalEdgeStyle;rounded=0;orthogonalLoop=1;jettySize=auto;html=1;exitX=0.5;exitY=0;exitDx=0;exitDy=0;fontSize=11;endArrow=open;endFill=0;targetPerimeterSpacing=0;entryX=1;entryY=0.5;entryDx=0;entryDy=0;" edge="1" parent="1" source="jaeACZpHtCw7frlPeN86-1" target="jaeACZpHtCw7frlPeN86-34">
          <mxGeometry relative="1" as="geometry">
            <mxPoint x="430" y="310" as="targetPoint" />
            <Array as="points">
              <mxPoint x="90" y="75" />
              <mxPoint x="470" y="75" />
              <mxPoint x="470" y="320" />
            </Array>
          </mxGeometry>
        </mxCell>
        <mxCell id="jaeACZpHtCw7frlPeN86-1" value="Administrator " style="swimlane;fontStyle=0;childLayout=stackLayout;horizontal=1;startSize=30;horizontalStack=0;resizeParent=1;resizeParentMax=0;resizeLast=0;collapsible=1;marginBottom=0;" vertex="1" parent="1">
          <mxGeometry x="40" y="95" width="100" height="60" as="geometry">
            <mxRectangle x="370" y="150" width="60" height="30" as="alternateBounds" />
          </mxGeometry>
        </mxCell>
        <mxCell id="jaeACZpHtCw7frlPeN86-5" value="Worker" style="swimlane;fontStyle=0;childLayout=stackLayout;horizontal=1;startSize=30;horizontalStack=0;resizeParent=1;resizeParentMax=0;resizeLast=0;collapsible=1;marginBottom=0;" vertex="1" parent="1">
          <mxGeometry x="30" y="240" width="120" height="210" as="geometry">
            <mxRectangle x="370" y="150" width="90" height="30" as="alternateBounds" />
          </mxGeometry>
        </mxCell>
        <mxCell id="jaeACZpHtCw7frlPeN86-6" value="First name" style="text;strokeColor=none;fillColor=none;align=left;verticalAlign=middle;spacingLeft=4;spacingRight=4;overflow=hidden;points=[[0,0.5],[1,0.5]];portConstraint=eastwest;rotatable=0;" vertex="1" parent="jaeACZpHtCw7frlPeN86-5">
          <mxGeometry y="30" width="120" height="30" as="geometry" />
        </mxCell>
        <mxCell id="jaeACZpHtCw7frlPeN86-7" value="Last name" style="text;strokeColor=none;fillColor=none;align=left;verticalAlign=middle;spacingLeft=4;spacingRight=4;overflow=hidden;points=[[0,0.5],[1,0.5]];portConstraint=eastwest;rotatable=0;" vertex="1" parent="jaeACZpHtCw7frlPeN86-5">
          <mxGeometry y="60" width="120" height="30" as="geometry" />
        </mxCell>
        <mxCell id="jaeACZpHtCw7frlPeN86-8" value="Date of birth" style="text;strokeColor=none;fillColor=none;align=left;verticalAlign=middle;spacingLeft=4;spacingRight=4;overflow=hidden;points=[[0,0.5],[1,0.5]];portConstraint=eastwest;rotatable=0;" vertex="1" parent="jaeACZpHtCw7frlPeN86-5">
          <mxGeometry y="90" width="120" height="30" as="geometry" />
        </mxCell>
        <mxCell id="jaeACZpHtCw7frlPeN86-9" value="Mail" style="text;strokeColor=none;fillColor=none;align=left;verticalAlign=middle;spacingLeft=4;spacingRight=4;overflow=hidden;points=[[0,0.5],[1,0.5]];portConstraint=eastwest;rotatable=0;" vertex="1" parent="jaeACZpHtCw7frlPeN86-5">
          <mxGeometry y="120" width="120" height="30" as="geometry" />
        </mxCell>
        <mxCell id="jaeACZpHtCw7frlPeN86-10" value="Phone number" style="text;strokeColor=none;fillColor=none;align=left;verticalAlign=middle;spacingLeft=4;spacingRight=4;overflow=hidden;points=[[0,0.5],[1,0.5]];portConstraint=eastwest;rotatable=0;" vertex="1" parent="jaeACZpHtCw7frlPeN86-5">
          <mxGeometry y="150" width="120" height="30" as="geometry" />
        </mxCell>
        <mxCell id="jaeACZpHtCw7frlPeN86-15" value="Position" style="text;strokeColor=none;fillColor=none;align=left;verticalAlign=middle;spacingLeft=4;spacingRight=4;overflow=hidden;points=[[0,0.5],[1,0.5]];portConstraint=eastwest;rotatable=0;" vertex="1" parent="jaeACZpHtCw7frlPeN86-5">
          <mxGeometry y="180" width="120" height="30" as="geometry" />
        </mxCell>
        <mxCell id="jaeACZpHtCw7frlPeN86-21" value="Signature form" style="swimlane;fontStyle=0;childLayout=stackLayout;horizontal=1;startSize=30;horizontalStack=0;resizeParent=1;resizeParentMax=0;resizeLast=0;collapsible=1;marginBottom=0;fontSize=12;" vertex="1" parent="1">
          <mxGeometry x="250" y="90" width="130" height="90" as="geometry" />
        </mxCell>
        <mxCell id="jaeACZpHtCw7frlPeN86-22" value="Signature" style="text;strokeColor=none;fillColor=none;align=left;verticalAlign=middle;spacingLeft=4;spacingRight=4;overflow=hidden;points=[[0,0.5],[1,0.5]];portConstraint=eastwest;rotatable=0;fontSize=12;" vertex="1" parent="jaeACZpHtCw7frlPeN86-21">
          <mxGeometry y="30" width="130" height="30" as="geometry" />
        </mxCell>
        <mxCell id="jaeACZpHtCw7frlPeN86-23" value="Comment " style="text;strokeColor=none;fillColor=none;align=left;verticalAlign=middle;spacingLeft=4;spacingRight=4;overflow=hidden;points=[[0,0.5],[1,0.5]];portConstraint=eastwest;rotatable=0;fontSize=12;" vertex="1" parent="jaeACZpHtCw7frlPeN86-21">
          <mxGeometry y="60" width="130" height="30" as="geometry" />
        </mxCell>
        <mxCell id="jaeACZpHtCw7frlPeN86-28" value="1" style="text;html=1;align=center;verticalAlign=middle;resizable=0;points=[];autosize=1;strokeColor=none;fillColor=none;fontSize=11;" vertex="1" parent="1">
          <mxGeometry x="70" y="150" width="30" height="30" as="geometry" />
        </mxCell>
        <mxCell id="jaeACZpHtCw7frlPeN86-29" value="&lt;font style=&quot;font-size: 14px;&quot;&gt;*&lt;/font&gt;" style="text;html=1;align=center;verticalAlign=middle;resizable=0;points=[];autosize=1;strokeColor=none;fillColor=none;fontSize=11;" vertex="1" parent="1">
          <mxGeometry x="70" y="210" width="30" height="30" as="geometry" />
        </mxCell>
        <mxCell id="jaeACZpHtCw7frlPeN86-32" value="1" style="text;html=1;align=center;verticalAlign=middle;resizable=0;points=[];autosize=1;strokeColor=none;fillColor=none;fontSize=11;" vertex="1" parent="1">
          <mxGeometry x="135" y="105" width="30" height="30" as="geometry" />
        </mxCell>
        <mxCell id="jaeACZpHtCw7frlPeN86-33" value="&lt;font style=&quot;font-size: 14px;&quot;&gt;*&lt;/font&gt;" style="text;html=1;align=center;verticalAlign=middle;resizable=0;points=[];autosize=1;strokeColor=none;fillColor=none;fontSize=11;" vertex="1" parent="1">
          <mxGeometry x="220" y="105" width="30" height="30" as="geometry" />
        </mxCell>
        <mxCell id="jaeACZpHtCw7frlPeN86-34" value="Safety documents " style="swimlane;fontStyle=0;childLayout=stackLayout;horizontal=1;startSize=30;horizontalStack=0;resizeParent=1;resizeParentMax=0;resizeLast=0;collapsible=1;marginBottom=0;fontSize=12;" vertex="1" parent="1">
          <mxGeometry x="300" y="290" width="130" height="60" as="geometry" />
        </mxCell>
        <mxCell id="jaeACZpHtCw7frlPeN86-35" value="File" style="text;strokeColor=none;fillColor=none;align=left;verticalAlign=middle;spacingLeft=4;spacingRight=4;overflow=hidden;points=[[0,0.5],[1,0.5]];portConstraint=eastwest;rotatable=0;fontSize=12;" vertex="1" parent="jaeACZpHtCw7frlPeN86-34">
          <mxGeometry y="30" width="130" height="30" as="geometry" />
        </mxCell>
        <mxCell id="jaeACZpHtCw7frlPeN86-38" value="public" style="text;html=1;align=center;verticalAlign=middle;resizable=0;points=[];autosize=1;strokeColor=none;fillColor=none;fontSize=11;" vertex="1" parent="1">
          <mxGeometry x="255" y="55" width="50" height="30" as="geometry" />
        </mxCell>
        <mxCell id="jaeACZpHtCw7frlPeN86-39" value="1" style="text;html=1;align=center;verticalAlign=middle;resizable=0;points=[];autosize=1;strokeColor=none;fillColor=none;fontSize=11;" vertex="1" parent="1">
          <mxGeometry x="70" y="65" width="30" height="30" as="geometry" />
        </mxCell>
        <mxCell id="jaeACZpHtCw7frlPeN86-40" value="&lt;font style=&quot;font-size: 14px;&quot;&gt;*&lt;/font&gt;" style="text;html=1;align=center;verticalAlign=middle;resizable=0;points=[];autosize=1;strokeColor=none;fillColor=none;fontSize=11;" vertex="1" parent="1">
          <mxGeometry x="430" y="290" width="30" height="30" as="geometry" />
        </mxCell>
        <mxCell id="jaeACZpHtCw7frlPeN86-41" style="edgeStyle=orthogonalEdgeStyle;rounded=0;orthogonalLoop=1;jettySize=auto;html=1;exitX=1;exitY=0.5;exitDx=0;exitDy=0;entryX=0.154;entryY=1;entryDx=0;entryDy=0;entryPerimeter=0;fontSize=14;endArrow=open;endFill=0;targetPerimeterSpacing=0;" edge="1" parent="1" source="jaeACZpHtCw7frlPeN86-6" target="jaeACZpHtCw7frlPeN86-23">
          <mxGeometry relative="1" as="geometry" />
        </mxCell>
        <mxCell id="jaeACZpHtCw7frlPeN86-45" value="&lt;font style=&quot;font-size: 12px;&quot;&gt;sign&lt;/font&gt;" style="edgeLabel;html=1;align=center;verticalAlign=middle;resizable=0;points=[];fontSize=14;" vertex="1" connectable="0" parent="jaeACZpHtCw7frlPeN86-41">
          <mxGeometry x="-0.5556" y="3" relative="1" as="geometry">
            <mxPoint x="10" y="-7" as="offset" />
          </mxGeometry>
        </mxCell>
        <mxCell id="jaeACZpHtCw7frlPeN86-43" value="1" style="text;html=1;align=center;verticalAlign=middle;resizable=0;points=[];autosize=1;strokeColor=none;fillColor=none;fontSize=11;" vertex="1" parent="1">
          <mxGeometry x="140" y="260" width="30" height="30" as="geometry" />
        </mxCell>
        <mxCell id="jaeACZpHtCw7frlPeN86-44" value="&lt;font style=&quot;font-size: 14px;&quot;&gt;*&lt;/font&gt;" style="text;html=1;align=center;verticalAlign=middle;resizable=0;points=[];autosize=1;strokeColor=none;fillColor=none;fontSize=11;" vertex="1" parent="1">
          <mxGeometry x="240" y="180" width="30" height="30" as="geometry" />
        </mxCell>
        <mxCell id="jaeACZpHtCw7frlPeN86-46" value="" style="endArrow=open;html=1;rounded=0;fontSize=12;targetPerimeterSpacing=0;exitX=1;exitY=0.165;exitDx=0;exitDy=0;exitPerimeter=0;entryX=0;entryY=0.5;entryDx=0;entryDy=0;endFill=0;" edge="1" parent="1" source="jaeACZpHtCw7frlPeN86-8" target="jaeACZpHtCw7frlPeN86-35">
          <mxGeometry width="50" height="50" relative="1" as="geometry">
            <mxPoint x="210" y="310" as="sourcePoint" />
            <mxPoint x="260" y="260" as="targetPoint" />
          </mxGeometry>
        </mxCell>
        <mxCell id="jaeACZpHtCw7frlPeN86-47" value="view" style="edgeLabel;html=1;align=center;verticalAlign=middle;resizable=0;points=[];fontSize=12;" vertex="1" connectable="0" parent="jaeACZpHtCw7frlPeN86-46">
          <mxGeometry x="-0.6052" y="-1" relative="1" as="geometry">
            <mxPoint x="40" y="9" as="offset" />
          </mxGeometry>
        </mxCell>
        <mxCell id="jaeACZpHtCw7frlPeN86-48" value="1" style="text;html=1;align=center;verticalAlign=middle;resizable=0;points=[];autosize=1;strokeColor=none;fillColor=none;fontSize=11;" vertex="1" parent="1">
          <mxGeometry x="140" y="310" width="30" height="30" as="geometry" />
        </mxCell>
        <mxCell id="jaeACZpHtCw7frlPeN86-49" value="&lt;font style=&quot;font-size: 14px;&quot;&gt;*&lt;/font&gt;" style="text;html=1;align=center;verticalAlign=middle;resizable=0;points=[];autosize=1;strokeColor=none;fillColor=none;fontSize=11;" vertex="1" parent="1">
          <mxGeometry x="275" y="310" width="30" height="30" as="geometry" />
        </mxCell>
      </root>
    </mxGraphModel>
  </diagram>
</mxfile>
